<svg preserveAspectRatio="none" overflow="visible" style="display:block" width="9" height="12" fill="none" xmlns="http://www.w3.org/2000/svg"><g fill="#CCC" clip-path="url(#a)"><path d="M-136.032.22a.751.751 0 0 1 1.062 0l.002-.002 3.375 3.375a.751.751 0 0 1-1.062 1.062l-2.845-2.843-2.845 2.845a.751.751 0 0 1-1.062-1.062l3.375-3.375Zm4.437 8.187a.751.751 0 0 0-1.062-1.062l-2.843 2.843-2.845-2.843a.751.751 0 0 0-1.062 1.062l3.375 3.375a.751.751 0 0 0 1.062 0l3.375-3.375Z"/></g><defs><clipPath id="a"><path fill="#fff" d="M0 0h9v12H0z"/></clipPath></defs></svg>